<svg xmlns="http://www.w3.org/2000/svg" version="1.1" xmlns:xlink="http://www.w3.org/1999/xlink" width="512" height="512" x="0" y="0" viewBox="0 0 510 510" style="enable-background:new 0 0 512 512" xml:space="preserve" fill-rule="evenodd" class=""><g><path fill="#4dadb3" d="M71.082 360.042a7.628 7.628 0 0 0 7.548 8.742c50.218.022 302.512.022 352.717.022a7.654 7.654 0 0 0 7.572-8.764c-13.849-89.117-90.905-157.33-183.933-157.33-92.977 0-170.031 68.211-183.904 157.33z" opacity="1" data-original="#8ac9fe" class=""></path><path fill="#3e999f" d="M406.312 368.806a7.656 7.656 0 0 0 5.791-2.649 7.656 7.656 0 0 0 1.78-6.115c-13.222-85.087-84.064-151.117-171.411-156.916 4.136-.275 8.309-.414 12.514-.414 93.028 0 170.084 68.213 183.933 157.33a7.653 7.653 0 0 1-7.572 8.764h-25.035z" opacity="1" data-original="#60b7ff" class=""></path><path fill="#4dadb3" d="M254.986 202.712c51.874 0 94.117-42.293 94.117-94.117s-42.243-94.117-94.117-94.117c-51.823 0-94.067 42.293-94.067 94.117s42.244 94.117 94.067 94.117z" opacity="1" data-original="#f6dccd" class=""></path><path fill="#3e999f" d="M248.73 202.505c48.969-3.239 87.856-44.188 87.856-93.91s-38.887-90.671-87.856-93.91a94.675 94.675 0 0 1 6.256-.207c51.874 0 94.117 42.293 94.117 94.117s-42.243 94.117-94.117 94.117c-2.101 0-4.187-.07-6.256-.207z" opacity="1" data-original="#f1cbbc" class=""></path><path fill="#b8357b" d="M279.357 271.097a104.312 104.312 0 0 1 30.579 12.673l19.87-8.815 23.411 23.411-8.815 19.87a104.312 104.312 0 0 1 12.673 30.579l20.275 7.803v33.122l-20.275 7.804a104.393 104.393 0 0 1-12.673 30.564l8.815 19.87-23.411 23.425-19.87-8.829a104.375 104.375 0 0 1-30.579 12.688l-7.803 20.26h-33.122l-7.804-20.275a104.393 104.393 0 0 1-30.564-12.673l-19.87 8.829-23.425-23.425 8.829-19.856a104.695 104.695 0 0 1-12.688-30.578l-20.26-7.804v-33.122l20.26-7.803a104.375 104.375 0 0 1 12.688-30.579l-8.829-19.87 23.425-23.411 19.856 8.815a104.632 104.632 0 0 1 30.578-12.673l7.804-20.275h33.122z" opacity="1" data-original="#ffe177" class=""></path><path fill="#f459ac" d="m323.13 277.918 6.676-2.963 23.411 23.411-8.815 19.87a104.312 104.312 0 0 1 12.673 30.579l20.275 7.803v33.122l-20.275 7.804a104.393 104.393 0 0 1-12.673 30.564l8.815 19.87-23.411 23.425-6.676-2.962 20.462-20.463-8.829-19.87a104.393 104.393 0 0 0 12.673-30.564l20.275-7.804v-33.122l-20.275-7.803a104.312 104.312 0 0 0-12.673-30.579l8.829-19.87zm-145.898 0 2.962-2.963 19.856 8.815a92.129 92.129 0 0 0-4.148 2.443zm102.125-6.821a104.312 104.312 0 0 1 30.579 12.673l-5.477 2.443c-9.451-5.824-23.931-12.544-34.741-15.116l-7.803-20.275h9.639zm-79.293 191.477-19.87 8.829-2.962-2.962 18.67-8.295a99.289 99.289 0 0 0 4.162 2.428zm109.872 0a104.375 104.375 0 0 1-30.579 12.688l-7.803 20.26h-9.639l7.803-20.26c10.81-2.573 25.29-9.292 34.755-15.116z" opacity="1" data-original="#ffd064" class=""></path><path fill="#ffbc50" d="M254.992 299.575c41.566 0 75.258 33.692 75.258 75.258 0 41.55-33.692 75.242-75.258 75.242-41.55 0-75.242-33.692-75.242-75.242 0-41.566 33.692-75.258 75.242-75.258z" opacity="1" data-original="#eceff1" class=""></path><path fill="#eb9e23" d="M254.992 299.575c1.712 0 3.409.061 5.106.183-39.18 2.614-70.167 35.222-70.167 75.075 0 39.837 30.987 72.444 70.167 75.074a80.997 80.997 0 0 1-5.106.168c-41.55 0-75.242-33.692-75.242-75.242 0-41.566 33.692-75.258 75.242-75.258z" opacity="1" data-original="#d1d1d6" class=""></path><path d="M124.66 375.26H71.023a7.999 7.999 0 0 1-7.954-8.854c8.773-81.695 68.471-148.15 146.707-166.941-33.328-16.69-56.294-51.203-56.294-90.897C153.482 52.64 199.072 7 255 7c55.98 0 101.568 45.641 101.568 101.568 0 39.695-22.967 74.209-56.315 90.899 78.262 18.794 137.949 85.25 146.679 166.943a8.002 8.002 0 0 1-7.955 8.85H385.34v13.968a8 8 0 0 1-5.127 7.466l-16.426 6.321a112.9 112.9 0 0 1-10.406 25.093l7.139 16.116a8 8 0 0 1-1.658 8.897l-23.401 23.401a8 8 0 0 1-8.897 1.658l-16.101-7.132a111.778 111.778 0 0 1-25.108 10.401l-6.321 16.424a8 8 0 0 1-7.466 5.127h-33.102a7.999 7.999 0 0 1-7.466-5.127l-6.321-16.422a112.734 112.734 0 0 1-25.127-10.41l-16.116 7.139a8 8 0 0 1-8.897-1.658l-23.401-23.401a8 8 0 0 1-1.653-8.907l7.157-16.097a112.733 112.733 0 0 1-10.419-25.097l-16.436-6.326a8 8 0 0 1-5.127-7.466zM255 210.135c-88.257 0-161.432 64.612-174.845 149.125h44.505v-3.134a7.999 7.999 0 0 1 5.127-7.466l16.433-6.325a112.817 112.817 0 0 1 10.424-25.126l-7.159-16.103a8 8 0 0 1 1.653-8.907l23.401-23.401a8 8 0 0 1 8.907-1.653l16.102 7.159a112.083 112.083 0 0 1 25.101-10.401l6.353-16.463a8.001 8.001 0 0 1 7.464-5.12h33.102c3.311 0 6.28 2.04 7.467 5.131l6.323 16.454a112.07 112.07 0 0 1 25.093 10.399l16.103-7.159a8 8 0 0 1 8.907 1.653l23.401 23.401a8 8 0 0 1 1.658 8.897l-7.135 16.106a111.827 111.827 0 0 1 10.407 25.138l16.421 6.32a7.999 7.999 0 0 1 5.127 7.466v3.134h44.51C416.482 274.747 343.303 210.135 255 210.135zm0-16c47.161 0 85.568-38.451 85.568-85.567C340.568 61.451 302.161 23 255 23c-47.115 0-85.518 38.452-85.518 85.568 0 47.115 38.403 85.567 85.518 85.567zm16.9 79.356-5.829-15.171h-22.117l-5.858 15.181a7.997 7.997 0 0 1-5.614 4.903 96.136 96.136 0 0 0-28.222 11.695 8 8 0 0 1-7.447.499l-14.846-6.601-15.63 15.63 6.601 14.846a8 8 0 0 1-.499 7.447 96.925 96.925 0 0 0-11.732 28.272 7.998 7.998 0 0 1-4.906 5.599l-15.141 5.828v22.115l15.141 5.828a8.001 8.001 0 0 1 4.905 5.594c2.401 9.975 6.339 19.52 11.727 28.233a7.999 7.999 0 0 1 .505 7.458l-6.601 14.846 15.636 15.636 14.851-6.579a8.003 8.003 0 0 1 7.419.493c8.745 5.358 18.259 9.334 28.267 11.705a7.998 7.998 0 0 1 5.621 4.911L243.959 487h22.115l5.828-15.141a8 8 0 0 1 5.616-4.91 95.738 95.738 0 0 0 28.211-11.688 8 8 0 0 1 7.447-.511l14.851 6.579 15.642-15.642-6.579-14.851a8.003 8.003 0 0 1 .493-7.419c5.359-8.746 9.335-18.261 11.706-28.239a8 8 0 0 1 4.91-5.616l15.141-5.828v-22.115l-15.141-5.828a7.998 7.998 0 0 1-4.911-5.621 95.961 95.961 0 0 0-11.694-28.25 8 8 0 0 1-.504-7.436l6.579-14.851-15.636-15.636-14.846 6.601a8 8 0 0 1-7.447-.499 96.136 96.136 0 0 0-28.222-11.695 7.999 7.999 0 0 1-5.618-4.913zm-16.905 15.951c45.977 0 83.256 37.236 83.256 83.213 0 45.976-37.28 83.256-83.256 83.256-45.977 0-83.213-37.279-83.213-83.256 0-45.978 37.235-83.213 83.213-83.213zm0 16c-37.138 0-67.213 30.075-67.213 67.213 0 37.139 30.074 67.256 67.213 67.256 37.14 0 67.256-30.116 67.256-67.256 0-37.139-30.117-67.213-67.256-67.213zm-42.078 75.054c-3.122-3.122-3.122-8.192 0-11.314s8.192-3.122 11.314 0l15.868 15.868 45.985-41.717a8.005 8.005 0 0 1 11.301.55 8.004 8.004 0 0 1-.551 11.301l-51.629 46.836a8 8 0 0 1-11.032-.268z" fill="#000000" opacity="1" data-original="#000000" class=""></path></g></svg>